# xmcd
#
# Track frame offsets: 
#        150
#        11000
#        21904
#        31903
#        43984
#        57286
#        67840
#        80470
#        93269
#        105392
#        117855
#        126354
#        135359
#        145542
#
# Disc length: 2113 seconds
#
# Revision: 0
# Processed by: cddbd v1.5.2PL0 Copyright (c) Steve Scherf et al.
# Submitted via: ExactAudioCopy v1.3
#
DISCID=af083f0e
DTITLE=Louvin Brothers - Love And Wealth: The Lost Recordings [CD2]
DYEAR=2018
DGENRE=Country
TTITLE0=Preach The Gospel
TTITLE1=Born Again
TTITLE2=They've Got The Church Outnumbered
TTITLE3=The Sons And Daughters Of God
TTITLE4=Insured Beyond The Grave
TTITLE5=You'll Meet Him In The Clouds
TTITLE6=I Love God's Way Of Living
TTITLE7=Love And Wealth
TTITLE8=Bald Knob, Arkansas
TTITLE9=Measured Love
TTITLE10=Kiss Me Like You Did Yesterday
TTITLE11=Would You Tear Down Your Castle
TTITLE12=You'll Forget
TTITLE13=Never Say Goodbye
EXTD=
EXTT0=
EXTT1=
EXTT2=
EXTT3=
EXTT4=
EXTT5=
EXTT6=
EXTT7=
EXTT8=
EXTT9=
EXTT10=
EXTT11=
EXTT12=
EXTT13=
PLAYORDER=
